<svg width="90" height="74" viewBox="0 0 90 74" fill="none" xmlns="http://www.w3.org/2000/svg">
<path d="M89.7429 10.5967C89.6852 10.3283 89.5641 10.0693 89.2846 9.84944C86.7354 7.83139 80.7092 -0.306051 76.7514 1.04305C71.2301 2.92694 40.8773 42.8594 34.1486 51.6602C31.7989 48.3024 12.2277 21.4565 11.2457 22.0584C7.88224 24.1137 4.41074 25.8709 1.19825 28.1908C0.838613 28.4517 0.654137 28.789 0.600099 29.1337C0.160338 29.4766 -0.121034 30.0449 0.0503981 30.7399C2.80822 41.9389 12.1848 50.7584 18.8818 59.5797C22.7707 64.7021 28.1932 77.5968 35.5033 71.5091C35.6282 71.4047 35.7027 71.2855 35.7847 71.1644C37.2195 70.5793 38.4475 69.4407 39.7332 68.0544C45.3048 62.0542 50.2092 55.4616 55.3783 49.1037C60.9032 42.306 67.0319 35.9425 73.101 29.6666C78.4005 24.1864 83.1074 16.9303 89.3535 12.6445C90.1324 12.106 90.1343 11.2172 89.7429 10.5967ZM17.598 30.3579C15.8464 28.8095 14.0314 27.3038 12.1364 25.8541C14.1786 27.1194 15.9805 28.6418 17.598 30.3579ZM9.19966 31.6437C8.82511 31.2896 8.40585 31.217 8.02386 31.3045C7.78348 30.6337 7.5841 29.9592 7.47602 29.2902C7.40521 28.8579 7.19278 28.5393 6.917 28.325C7.0288 28.2411 7.13315 28.1573 7.24868 28.0753C7.26918 28.3865 7.38098 28.6977 7.61764 28.9809C11.8494 33.9878 16.6178 38.4562 20.9204 43.3961C21.4142 43.9644 21.8968 44.5384 22.3813 45.1086C17.8104 40.778 13.7799 35.95 9.19966 31.6437ZM26.3466 65.0729C26.7733 65.5649 27.1982 66.0587 27.6342 66.5413C28.1392 67.2308 28.6497 67.9202 29.1771 68.6003C29.179 68.6078 29.1808 68.6171 29.1827 68.6227C28.1485 67.691 27.1982 66.3755 26.3466 65.0729ZM27.7162 54.1553C28.9703 55.2622 30.2821 56.3169 31.661 57.1628C31.6275 57.3827 31.6442 57.597 31.6983 57.8038C31.715 57.8952 31.7523 57.9865 31.7877 58.0759C30.4703 56.7343 29.097 55.4429 27.7162 54.1553ZM33.8151 68.5426C33.8113 68.5295 33.8132 68.5165 33.8076 68.5072C33.7629 68.4047 33.7107 68.3134 33.666 68.2128C34.9443 68.1979 36.6176 67.2494 38.4549 65.7717C36.8319 67.3034 35.2275 68.3823 33.8151 68.5426ZM77.3532 4.62076C76.1607 5.14064 75.1675 5.9419 74.2786 6.88292C75.1582 5.62699 76.0899 4.66175 77.3532 4.62076ZM47.8464 43.2638C47.1346 44.011 45.86 45.1421 44.3227 46.5285C45.6812 45.17 47.0899 43.8787 48.3551 42.5892C52.4825 38.3929 55.6783 33.2462 59.01 28.3268C62.789 24.6187 66.704 21.0894 70.3152 17.1912C72.691 14.6235 74.1538 10.5072 76.9321 8.314C75.0799 10.2668 73.6171 13.088 72.3687 15.7993C70.3879 17.8863 68.6363 20.2453 66.799 22.5298C60.9647 29.7933 54.2546 36.5388 47.8464 43.2638ZM72.2513 25.897C69.3127 29.4579 66.0145 32.7002 62.8784 36.0841C65.2449 33.1176 67.5947 30.1362 69.7525 26.9945C69.922 26.7467 70.127 26.3982 70.3525 25.9715C71.1109 25.2131 71.8693 24.4566 72.6128 23.6851C74.7669 21.4416 77.3272 18.9763 78.898 16.1067C80.1521 14.4203 81.5254 12.747 83.0776 11.7408C80.8285 16.8446 75.3743 22.1162 72.2513 25.897Z" fill="#2DBC7C"/>
</svg>
